<svg data-icon-name="modern-home" data-style="flat-color" icon_origin_id="14887" viewBox="0 0 24 24" xmlns="http://www.w3.org/2000/svg" data-name="Flat Color" id="modern-home" class="icon flat-color" width="48" height="48"><path style="fill: rgb(255, 255, 255);" d="M20,9H15.41l-2.7-2.71a1,1,0,0,0-1.42,0L8.59,9H4a1,1,0,0,0-1,1V21a1,1,0,0,0,1,1H20a1,1,0,0,0,1-1V10A1,1,0,0,0,20,9Z" id="primary"></path><path style="fill: rgb(162, 162, 162);" d="M15,15v7H9V15a1,1,0,0,1,1-1h4A1,1,0,0,1,15,15Zm7-5.27L20.17,3.45A2,2,0,0,0,18.25,2H5.75A2,2,0,0,0,3.83,3.45L2,9.73a1,1,0,0,0,.16.87A1,1,0,0,0,3,11H9a1,1,0,0,0,.71-.29L12,8.41l2.29,2.3A1,1,0,0,0,15,11h6a1,1,0,0,0,.8-.4A1,1,0,0,0,22,9.73Z" id="secondary"></path></svg>